<svg xmlns="http://www.w3.org/2000/svg" viewBox="0 0 128.05 146.98"><defs><style>.cls-1{fill:#332928;}</style></defs><title>Ресурс 3</title><g id="Слой_2" data-name="Слой 2"><g id="Layer_1" data-name="Layer 1"><path class="cls-1" d="M63.27,147,0,110.59l.76-74.5L64.78,0,128,37.4l-.76,73.19ZM2,109.44l61.27,35.24,62-35.25L126,38.54,64.76,2.31l-62,35Z"/><path class="cls-1" d="M31,128.37.72,74.26,31.88,18.9,94.94,19l31.51,52.75L93.88,128.37ZM3,74.26l29.15,52.11H92.72l31.42-54.63L93.81,21,33,20.9Z"/><rect class="cls-1" x="25.98" y="106.71" width="71.97" height="2" transform="translate(-46.19 46.51) rotate(-30.58)"/><rect class="cls-1" x="30.94" y="56.06" width="2" height="69.15" transform="translate(-62.66 73.74) rotate(-60.46)"/><rect class="cls-1" x="31.46" y="20.57" width="2" height="69.83"/><rect class="cls-1" x="32.46" y="88.4" width="60.48" height="2"/><rect class="cls-1" x="92.62" y="19.94" width="2" height="70.46" transform="translate(0.32 110.88) rotate(-61.35)"/><rect class="cls-1" x="27.92" y="36.32" width="70.81" height="2" transform="translate(-10.16 35.81) rotate(-29.33)"/><rect class="cls-1" x="17.88" y="62.84" width="59.4" height="2" transform="translate(-31.59 72.29) rotate(-59.39)"/><rect class="cls-1" x="76.82" y="34.14" width="2" height="59.4" transform="translate(-21.66 48.51) rotate(-30.6)"/><rect class="cls-1" x="56.61" y="89.79" width="72.43" height="2" transform="translate(1.77 183.35) rotate(-89.83)"/></g></g></svg>