<svg xmlns="http://www.w3.org/2000/svg" viewBox="0 0 215.59 44.97"><defs><style>.cls-1{fill:#332928;}</style></defs><title>Ресурс 4</title><g id="Слой_2" data-name="Слой 2"><g id="Layer_1" data-name="Layer 1"><path class="cls-1" d="M21,4,19.36,5.55A12.33,12.33,0,0,0,15.54,3a10.26,10.26,0,0,0-4-.89,9.64,9.64,0,0,0-4.67,1.2A8.74,8.74,0,0,0,3.4,6.53a8.43,8.43,0,0,0-1.22,4.35,8.6,8.6,0,0,0,1.26,4.47,9,9,0,0,0,3.48,3.33A10,10,0,0,0,11.8,19.9a8.32,8.32,0,0,0,5.44-1.81,7.15,7.15,0,0,0,2.63-4.7H13.23v-2h9A10.46,10.46,0,0,1,19.34,19a10.27,10.27,0,0,1-7.6,2.84,11.42,11.42,0,0,1-9.15-3.94,10.46,10.46,0,0,1-2.59-7A10.74,10.74,0,0,1,1.49,5.42a10.58,10.58,0,0,1,4.08-4A11.88,11.88,0,0,1,11.43,0a13,13,0,0,1,5,1A14.88,14.88,0,0,1,21,4Z"/><path class="cls-1" d="M29.07.52h2.08V19.34h8v2H29.07Z"/><path class="cls-1" d="M53.87.52l9.71,20.83H61.34L58.06,14.5h-9l-3.25,6.85H43.52L53.36.52Zm-.26,4.43L50,12.49h7.12Z"/><path class="cls-1" d="M67.56,17.47l1.77-1.06q1.87,3.44,4.32,3.44a4.13,4.13,0,0,0,2-.49A3.45,3.45,0,0,0,77,18.05a3.39,3.39,0,0,0,.48-1.74,3.53,3.53,0,0,0-.71-2.05,17,17,0,0,0-3.57-3.34A18.23,18.23,0,0,1,70,8.07a5.2,5.2,0,0,1-1.1-3.19,4.84,4.84,0,0,1,.65-2.48A4.65,4.65,0,0,1,71.37.64,5.29,5.29,0,0,1,73.94,0a5.48,5.48,0,0,1,2.75.73A9.45,9.45,0,0,1,79.4,3.41L77.7,4.7a8.16,8.16,0,0,0-2-2.05,3.45,3.45,0,0,0-1.81-.5,2.86,2.86,0,0,0-2.06.76A2.5,2.5,0,0,0,71,4.8a3.21,3.21,0,0,0,.28,1.32,4.86,4.86,0,0,0,1,1.39q.41.4,2.69,2.08a15.14,15.14,0,0,1,3.71,3.55,5.73,5.73,0,0,1,1,3.13A5.31,5.31,0,0,1,78,20.21a5.78,5.78,0,0,1-4.18,1.67,6.14,6.14,0,0,1-3.44-1A9.26,9.26,0,0,1,67.56,17.47Z"/><path class="cls-1" d="M84.91,17.47l1.77-1.06q1.87,3.44,4.32,3.44a4.13,4.13,0,0,0,2-.49,3.45,3.45,0,0,0,1.4-1.31,3.39,3.39,0,0,0,.48-1.74,3.53,3.53,0,0,0-.71-2.05,17,17,0,0,0-3.57-3.34,18.23,18.23,0,0,1-3.24-2.85,5.2,5.2,0,0,1-1.1-3.19,4.84,4.84,0,0,1,.65-2.48A4.65,4.65,0,0,1,88.71.64,5.29,5.29,0,0,1,91.28,0,5.48,5.48,0,0,1,94,.73a9.45,9.45,0,0,1,2.71,2.68L95,4.7a8.15,8.15,0,0,0-2-2.05,3.45,3.45,0,0,0-1.81-.5,2.86,2.86,0,0,0-2.06.76,2.5,2.5,0,0,0-.8,1.88,3.21,3.21,0,0,0,.28,1.32,4.86,4.86,0,0,0,1,1.39q.41.4,2.69,2.08a15.14,15.14,0,0,1,3.71,3.55,5.73,5.73,0,0,1,1,3.13,5.31,5.31,0,0,1-1.72,3.94,5.78,5.78,0,0,1-4.18,1.67,6.14,6.14,0,0,1-3.44-1A9.26,9.26,0,0,1,84.91,17.47Z"/><path class="cls-1" d="M112.91.52l9.71,20.83h-2.25L117.1,14.5h-9l-3.25,6.85h-2.32L112.4.52Zm-.26,4.43-3.57,7.54h7.12Z"/><path class="cls-1" d="M128.83.52h2.08V13.1a26,26,0,0,0,.08,2.79,4.63,4.63,0,0,0,.72,2.06,4.25,4.25,0,0,0,1.74,1.39,5.46,5.46,0,0,0,2.36.56,4.67,4.67,0,0,0,2-.44,4.41,4.41,0,0,0,1.59-1.22,5,5,0,0,0,.93-1.88,15.59,15.59,0,0,0,.21-3.26V.52h2.08V13.1a15.31,15.31,0,0,1-.54,4.51,6.14,6.14,0,0,1-2.18,3,6.25,6.25,0,0,1-4,1.27,7.58,7.58,0,0,1-4.32-1.2,5.8,5.8,0,0,1-2.41-3.19,16.88,16.88,0,0,1-.38-4.39Z"/><path class="cls-1" d="M150.76.52h4.15a25.14,25.14,0,0,1,4.7.28,5.36,5.36,0,0,1,3,1.82,5.2,5.2,0,0,1,1.16,3.44,5.55,5.55,0,0,1-.8,3A5,5,0,0,1,160.7,11a10.51,10.51,0,0,1-4.11.67l7.49,9.67h-2.58L154,11.68h-1.18v9.67h-2.08Zm2.08,2V9.64l3.59,0a8.91,8.91,0,0,0,3.08-.4A3.21,3.21,0,0,0,161.07,8a3.52,3.52,0,0,0,.56-1.95,3.37,3.37,0,0,0-.57-1.9,3.16,3.16,0,0,0-1.49-1.22,9,9,0,0,0-3.06-.37Z"/><path class="cls-1" d="M171.22.52h2.08V13.1a26,26,0,0,0,.08,2.79,4.63,4.63,0,0,0,.72,2.06,4.25,4.25,0,0,0,1.74,1.39,5.46,5.46,0,0,0,2.36.56,4.67,4.67,0,0,0,2-.44,4.41,4.41,0,0,0,1.59-1.22,5,5,0,0,0,.93-1.88,15.59,15.59,0,0,0,.21-3.26V.52H185V13.1a15.3,15.3,0,0,1-.55,4.51,6.13,6.13,0,0,1-2.18,3,6.24,6.24,0,0,1-4,1.27,7.58,7.58,0,0,1-4.32-1.2,5.8,5.8,0,0,1-2.41-3.19,16.88,16.88,0,0,1-.38-4.39Z"/><path class="cls-1" d="M192.09,21.35l3-20.83h.34l8.47,17.09L212.26.52h.33l3,20.83h-2l-2.06-14.9-7.37,14.9h-.53l-7.45-15-2,15Z"/><path class="cls-1" d="M44,36.87h.79v7.9H44Z"/><path class="cls-1" d="M47.74,44.77v-7.9h.17l5.26,6.06V36.87H54v7.9h-.18l-5.22-6v6Z"/><path class="cls-1" d="M56.16,43.3l.67-.4q.71,1.31,1.64,1.31a1.56,1.56,0,0,0,.75-.19,1.31,1.31,0,0,0,.53-.5,1.29,1.29,0,0,0,.18-.66,1.34,1.34,0,0,0-.27-.78,6.43,6.43,0,0,0-1.35-1.27,6.91,6.91,0,0,1-1.23-1.08,2,2,0,0,1-.42-1.21,1.84,1.84,0,0,1,.25-.94,1.76,1.76,0,0,1,.7-.67,2,2,0,0,1,1-.24,2.08,2.08,0,0,1,1,.28,3.59,3.59,0,0,1,1,1l-.64.49a3.1,3.1,0,0,0-.76-.78,1.31,1.31,0,0,0-.69-.19,1.09,1.09,0,0,0-.78.29,1,1,0,0,0-.3.71,1.21,1.21,0,0,0,.11.5,1.85,1.85,0,0,0,.39.53q.16.15,1,.79a5.74,5.74,0,0,1,1.41,1.35,2.17,2.17,0,0,1,.38,1.19,2,2,0,0,1-.65,1.49,2.19,2.19,0,0,1-1.59.63,2.33,2.33,0,0,1-1.31-.38A3.51,3.51,0,0,1,56.16,43.3Z"/><path class="cls-1" d="M63.55,36.87h1.57a9.07,9.07,0,0,1,1.83.12,2,2,0,0,1,1.11.69,2,2,0,0,1,.43,1.3,2,2,0,0,1-.42,1.3,2.06,2.06,0,0,1-1.15.69,10.21,10.21,0,0,1-2,.13h-.56v3.67h-.79Zm.79.77v2.68l1.34,0a3.5,3.5,0,0,0,1.19-.15,1.22,1.22,0,0,0,.59-.48,1.32,1.32,0,0,0,.21-.74,1.3,1.3,0,0,0-.21-.73,1.19,1.19,0,0,0-.57-.47,3.42,3.42,0,0,0-1.15-.14Z"/><path class="cls-1" d="M71.05,36.87h.79v7.9h-.79Z"/><path class="cls-1" d="M74.79,36.87h1.57a9.57,9.57,0,0,1,1.78.11,2,2,0,0,1,1.14.69,2,2,0,0,1,.44,1.3,2.11,2.11,0,0,1-.3,1.13,1.9,1.9,0,0,1-.87.74A4,4,0,0,1,77,41.1l2.84,3.67h-1L76,41.1h-.45v3.67h-.79Zm.79.77v2.69h1.36a3.38,3.38,0,0,0,1.17-.15,1.22,1.22,0,0,0,.59-.48,1.34,1.34,0,0,0,.21-.74,1.28,1.28,0,0,0-.22-.72,1.2,1.2,0,0,0-.56-.46A3.43,3.43,0,0,0,77,37.64Z"/><path class="cls-1" d="M82.53,36.87h4.53v.77H83.32v2.48H87v.77H83.32V44H87v.77h-4.5Z"/><path class="cls-1" d="M89.52,44.77v-7.9h1.64a8.36,8.36,0,0,1,2.57.28,3.44,3.44,0,0,1,1.8,1.4,4.25,4.25,0,0,1,.65,2.37A4.15,4.15,0,0,1,95.67,43a3.29,3.29,0,0,1-1.33,1.33,5,5,0,0,1-2.3.43Zm.76-.75h.91a8.5,8.5,0,0,0,2.27-.2,2.62,2.62,0,0,0,1.4-1,3.21,3.21,0,0,0,.51-1.84,3.38,3.38,0,0,0-.55-2,2.78,2.78,0,0,0-1.54-1.11,9.31,9.31,0,0,0-2.44-.23h-.56Z"/><path class="cls-1" d="M103,36.87h1.56a3.69,3.69,0,0,1,1.44.22,1.77,1.77,0,0,1,.8.68,1.88,1.88,0,0,1,.29,1,1.84,1.84,0,0,1-.26,1,1.9,1.9,0,0,1-.75.7A2.92,2.92,0,0,1,107,41a2,2,0,0,1,.52.68,2,2,0,0,1,.18.87,2.13,2.13,0,0,1-.7,1.61,2.6,2.6,0,0,1-1.87.66H103Zm.77.77v2.53h.45a3.52,3.52,0,0,0,1.21-.15,1.3,1.3,0,0,0,.61-.48,1.27,1.27,0,0,0,.23-.73,1,1,0,0,0-.38-.85,1.91,1.91,0,0,0-1.21-.31Zm0,3.32v3h1a3.53,3.53,0,0,0,1.27-.17,1.45,1.45,0,0,0,.65-.53,1.38,1.38,0,0,0-.1-1.7,1.77,1.77,0,0,0-.95-.54,6.91,6.91,0,0,0-1.4-.1Z"/><path class="cls-1" d="M109.75,36.87h.91l2,3.26,2-3.26h.91L113.08,41v3.78h-.78V41Z"/><path class="cls-1" d="M122.13,44.77v-7.9h.17l5.26,6.06V36.87h.78v7.9h-.18l-5.22-6v6Z"/><path class="cls-1" d="M134.59,36.87l3.68,7.9h-.85l-1.24-2.6h-3.4l-1.23,2.6h-.88l3.73-7.9Zm-.1,1.68-1.35,2.86h2.7Z"/><path class="cls-1" d="M139.82,37.64v-.77h4.33v.77h-1.76v7.13h-.81V37.64Z"/><path class="cls-1" d="M146.41,36.87h.79v4.77a9.87,9.87,0,0,0,0,1.06,1.76,1.76,0,0,0,.27.78,1.61,1.61,0,0,0,.66.53,2.07,2.07,0,0,0,.9.21,1.77,1.77,0,0,0,.75-.17,1.67,1.67,0,0,0,.6-.46,1.88,1.88,0,0,0,.35-.71,5.91,5.91,0,0,0,.08-1.24V36.87h.79v4.77a5.81,5.81,0,0,1-.21,1.71,2.33,2.33,0,0,1-.83,1.14,2.37,2.37,0,0,1-1.5.48,2.88,2.88,0,0,1-1.64-.46,2.2,2.2,0,0,1-.91-1.21,6.4,6.4,0,0,1-.15-1.67Z"/><path class="cls-1" d="M154.73,36.87h1.57a9.57,9.57,0,0,1,1.78.11,2,2,0,0,1,1.14.69,2,2,0,0,1,.44,1.3,2.1,2.1,0,0,1-.3,1.13,1.89,1.89,0,0,1-.87.74,4,4,0,0,1-1.56.26l2.84,3.67h-1L156,41.1h-.45v3.67h-.79Zm.79.77v2.69h1.36a3.38,3.38,0,0,0,1.17-.15,1.22,1.22,0,0,0,.59-.48,1.34,1.34,0,0,0,.21-.74,1.28,1.28,0,0,0-.22-.72,1.2,1.2,0,0,0-.56-.46,3.43,3.43,0,0,0-1.16-.14Z"/><path class="cls-1" d="M162.47,36.87H167v.77h-3.74v2.48H167v.77h-3.71V44H167v.77h-4.5Z"/></g></g></svg>